<svg width="41" height="41" viewBox="0 0 41 41" fill="none" xmlns="http://www.w3.org/2000/svg">
<path d="M20.6667 26.5C22.5458 26.5 24.0833 28.0375 24.0833 29.9167C24.0833 31.7958 22.5458 33.3333 20.6667 33.3333C18.7875 33.3333 17.25 31.7958 17.25 29.9167C17.25 28.0375 18.7875 26.5 20.6667 26.5ZM20.6667 16.25C22.5458 16.25 24.0833 17.7875 24.0833 19.6667C24.0833 21.5458 22.5458 23.0833 20.6667 23.0833C18.7875 23.0833 17.25 21.5458 17.25 19.6667C17.25 17.7875 18.7875 16.25 20.6667 16.25ZM20.6667 6C22.5458 6 24.0833 7.5375 24.0833 9.41667C24.0833 11.2958 22.5458 12.8333 20.6667 12.8333C18.7875 12.8333 17.25 11.2958 17.25 9.41667C17.25 7.5375 18.7875 6 20.6667 6ZM10.4167 26.5C12.2958 26.5 13.8333 28.0375 13.8333 29.9167C13.8333 31.7958 12.2958 33.3333 10.4167 33.3333C8.5375 33.3333 7 31.7958 7 29.9167C7 28.0375 8.5375 26.5 10.4167 26.5ZM10.4167 16.25C12.2958 16.25 13.8333 17.7875 13.8333 19.6667C13.8333 21.5458 12.2958 23.0833 10.4167 23.0833C8.5375 23.0833 7 21.5458 7 19.6667C7 17.7875 8.5375 16.25 10.4167 16.25ZM10.4167 6C12.2958 6 13.8333 7.5375 13.8333 9.41667C13.8333 11.2958 12.2958 12.8333 10.4167 12.8333C8.5375 12.8333 7 11.2958 7 9.41667C7 7.5375 8.5375 6 10.4167 6ZM30.9167 26.5C32.7958 26.5 34.3333 28.0375 34.3333 29.9167C34.3333 31.7958 32.7958 33.3333 30.9167 33.3333C29.0375 33.3333 27.5 31.7958 27.5 29.9167C27.5 28.0375 29.0375 26.5 30.9167 26.5ZM30.9167 16.25C32.7958 16.25 34.3333 17.7875 34.3333 19.6667C34.3333 21.5458 32.7958 23.0833 30.9167 23.0833C29.0375 23.0833 27.5 21.5458 27.5 19.6667C27.5 17.7875 29.0375 16.25 30.9167 16.25ZM30.9167 6C32.7958 6 34.3333 7.5375 34.3333 9.41667C34.3333 11.2958 32.7958 12.8333 30.9167 12.8333C29.0375 12.8333 27.5 11.2958 27.5 9.41667C27.5 7.5375 29.0375 6 30.9167 6Z" fill="#EBEEF3"/>
</svg>
