<svg width="41" height="41" viewBox="0 0 41 41" fill="none" xmlns="http://www.w3.org/2000/svg">
<path d="M6.83333 13.6667C7.77682 13.6667 8.54167 12.9018 8.54167 11.9583C8.54167 11.0148 7.77682 10.25 6.83333 10.25C5.88985 10.25 5.125 11.0148 5.125 11.9583C5.125 12.9018 5.88985 13.6667 6.83333 13.6667Z" fill="#EBEEF3"/>
<path d="M6.83333 22.2084C7.77682 22.2084 8.54167 21.4435 8.54167 20.5C8.54167 19.5565 7.77682 18.7917 6.83333 18.7917C5.88985 18.7917 5.125 19.5565 5.125 20.5C5.125 21.4435 5.88985 22.2084 6.83333 22.2084Z" fill="#EBEEF3"/>
<path d="M6.83333 30.75C7.77682 30.75 8.54167 29.9851 8.54167 29.0416C8.54167 28.0982 7.77682 27.3333 6.83333 27.3333C5.88985 27.3333 5.125 28.0982 5.125 29.0416C5.125 29.9851 5.88985 30.75 6.83333 30.75Z" fill="#EBEEF3"/>
<path d="M34.2691 18.7917H13.5641C12.6772 18.7917 11.9583 19.5106 11.9583 20.3975V20.6025C11.9583 21.4894 12.6772 22.2084 13.5641 22.2084H34.2691C35.156 22.2084 35.8749 21.4894 35.8749 20.6025V20.3975C35.8749 19.5106 35.156 18.7917 34.2691 18.7917Z" fill="#EBEEF3"/>
<path d="M34.2691 27.3333H13.5641C12.6772 27.3333 11.9583 28.0523 11.9583 28.9391V29.1441C11.9583 30.031 12.6772 30.75 13.5641 30.75H34.2691C35.156 30.75 35.8749 30.031 35.8749 29.1441V28.9391C35.8749 28.0523 35.156 27.3333 34.2691 27.3333Z" fill="#EBEEF3"/>
<path d="M34.2691 10.25H13.5641C12.6772 10.25 11.9583 10.969 11.9583 11.8558V12.0608C11.9583 12.9477 12.6772 13.6667 13.5641 13.6667H34.2691C35.156 13.6667 35.8749 12.9477 35.8749 12.0608V11.8558C35.8749 10.969 35.156 10.25 34.2691 10.25Z" fill="#EBEEF3"/>
</svg>
