<svg width="25" height="35" viewBox="0 0 25 35" fill="none" xmlns="http://www.w3.org/2000/svg">
<path d="M2 4V33L11.5 23.14L21 33V4H2Z" stroke="#EBEEF3" stroke-width="3" stroke-linecap="round" stroke-linejoin="round"/>
<rect width="9" height="9" transform="translate(16)" fill="#1A263D"/>
<path d="M19.6544 8.15438C17.9905 7.77075 16.75 6.28013 16.75 4.5C16.75 2.42888 18.4289 0.75 20.5 0.75C22.5711 0.75 24.25 2.42888 24.25 4.5C24.25 6.28013 23.0095 7.77075 21.3456 8.15438L20.5 9L19.6544 8.15438ZM18.6295 6.84637C18.9789 7.12582 19.3867 7.32307 19.8228 7.4235L20.0328 7.47187L20.5 7.9395L20.9676 7.47187L21.1776 7.42313C21.6421 7.31605 22.0742 7.09925 22.4376 6.79087C22.1934 6.54021 21.9014 6.34107 21.5789 6.20522C21.2564 6.06938 20.9099 5.9996 20.56 6C19.7965 6 19.1088 6.32625 18.6295 6.84637ZM18.106 6.3075C18.4212 5.97303 18.8015 5.70664 19.2236 5.52477C19.6456 5.3429 20.1004 5.24938 20.56 5.25C21.0031 5.24942 21.442 5.33639 21.8514 5.50589C22.2608 5.6754 22.6327 5.92411 22.9458 6.23775C23.2668 5.78592 23.4564 5.25399 23.4935 4.70097C23.5306 4.14795 23.4137 3.59546 23.1559 3.1048C22.8981 2.61413 22.5094 2.20448 22.033 1.92129C21.5565 1.6381 21.0109 1.49244 20.4567 1.50047C19.9025 1.5085 19.3614 1.66991 18.8933 1.96678C18.4253 2.26366 18.0486 2.6844 17.8051 3.18233C17.5617 3.68025 17.4609 4.23589 17.514 4.78761C17.5671 5.33932 17.772 5.86554 18.106 6.30787V6.3075ZM20.5 4.875C20.1022 4.875 19.7206 4.71696 19.4393 4.43566C19.158 4.15436 19 3.77282 19 3.375C19 2.97718 19.158 2.59564 19.4393 2.31434C19.7206 2.03304 20.1022 1.875 20.5 1.875C20.8978 1.875 21.2794 2.03304 21.5607 2.31434C21.842 2.59564 22 2.97718 22 3.375C22 3.77282 21.842 4.15436 21.5607 4.43566C21.2794 4.71696 20.8978 4.875 20.5 4.875ZM20.5 4.125C20.6989 4.125 20.8897 4.04598 21.0303 3.90533C21.171 3.76468 21.25 3.57391 21.25 3.375C21.25 3.17609 21.171 2.98532 21.0303 2.84467C20.8897 2.70402 20.6989 2.625 20.5 2.625C20.3011 2.625 20.1103 2.70402 19.9697 2.84467C19.829 2.98532 19.75 3.17609 19.75 3.375C19.75 3.57391 19.829 3.76468 19.9697 3.90533C20.1103 4.04598 20.3011 4.125 20.5 4.125Z" fill="#EBEEF3"/>
</svg>
