<svg width="23" height="33" viewBox="0 0 23 33" fill="none" xmlns="http://www.w3.org/2000/svg">
<path d="M2 2V31L11.5 21.14L21 31V2H2Z" stroke="#EBEEF3" stroke-width="3" stroke-linecap="round" stroke-linejoin="round"/>
<path d="M10.6544 16.1544C8.9905 15.7708 7.75 14.2801 7.75 12.5C7.75 10.4289 9.42888 8.75 11.5 8.75C13.5711 8.75 15.25 10.4289 15.25 12.5C15.25 14.2801 14.0095 15.7708 12.3456 16.1544L11.5 17L10.6544 16.1544ZM9.6295 14.8464C9.97892 15.1258 10.3867 15.3231 10.8228 15.4235L11.0328 15.4719L11.5 15.9395L11.9676 15.4719L12.1776 15.4231C12.6421 15.3161 13.0742 15.0993 13.4376 14.7909C13.1934 14.5402 12.9014 14.3411 12.5789 14.2052C12.2564 14.0694 11.9099 13.9996 11.56 14C10.7965 14 10.1088 14.3263 9.6295 14.8464ZM9.106 14.3075C9.42117 13.973 9.8015 13.7066 10.2236 13.5248C10.6456 13.3429 11.1004 13.2494 11.56 13.25C12.0031 13.2494 12.442 13.3364 12.8514 13.5059C13.2608 13.6754 13.6327 13.9241 13.9458 14.2378C14.2668 13.7859 14.4564 13.254 14.4935 12.701C14.5306 12.1479 14.4137 11.5955 14.1559 11.1048C13.8981 10.6141 13.5094 10.2045 13.033 9.92129C12.5565 9.6381 12.0109 9.49244 11.4567 9.50047C10.9025 9.5085 10.3614 9.66991 9.89332 9.96678C9.42527 10.2637 9.04861 10.6844 8.80513 11.1823C8.56166 11.6803 8.46089 12.2359 8.51399 12.7876C8.5671 13.3393 8.77202 13.8655 9.106 14.3079V14.3075ZM11.5 12.875C11.1022 12.875 10.7206 12.717 10.4393 12.4357C10.158 12.1544 10 11.7728 10 11.375C10 10.9772 10.158 10.5956 10.4393 10.3143C10.7206 10.033 11.1022 9.875 11.5 9.875C11.8978 9.875 12.2794 10.033 12.5607 10.3143C12.842 10.5956 13 10.9772 13 11.375C13 11.7728 12.842 12.1544 12.5607 12.4357C12.2794 12.717 11.8978 12.875 11.5 12.875ZM11.5 12.125C11.6989 12.125 11.8897 12.046 12.0303 11.9053C12.171 11.7647 12.25 11.5739 12.25 11.375C12.25 11.1761 12.171 10.9853 12.0303 10.8447C11.8897 10.704 11.6989 10.625 11.5 10.625C11.3011 10.625 11.1103 10.704 10.9697 10.8447C10.829 10.9853 10.75 11.1761 10.75 11.375C10.75 11.5739 10.829 11.7647 10.9697 11.9053C11.1103 12.046 11.3011 12.125 11.5 12.125Z" fill="#EBEEF3"/>
</svg>
