<svg width="48" height="48" viewBox="0 0 48 48" fill="none" xmlns="http://www.w3.org/2000/svg">
<rect width="48" height="48" rx="8" fill="#EBEEF3"/>
<path fill-rule="evenodd" clip-rule="evenodd" d="M29.7727 20.5454C29.7727 21.9438 29.2172 23.285 28.2284 24.2738C27.2396 25.2626 25.8984 25.8182 24.5 25.8182C23.1016 25.8182 21.7605 25.2626 20.7716 24.2738C19.7828 23.285 19.2273 21.9438 19.2273 20.5454C19.2273 19.147 19.7828 17.8059 20.7716 16.8171C21.7605 15.8282 23.1016 15.2727 24.5 15.2727C25.8984 15.2727 27.2396 15.8282 28.2284 16.8171C29.2172 17.8059 29.7727 19.147 29.7727 20.5454ZM27.1364 20.5454C27.1364 21.2446 26.8586 21.9152 26.3642 22.4096C25.8698 22.904 25.1992 23.1818 24.5 23.1818C23.8008 23.1818 23.1302 22.904 22.6358 22.4096C22.1414 21.9152 21.8637 21.2446 21.8637 20.5454C21.8637 19.8462 22.1414 19.1757 22.6358 18.6812C23.1302 18.1868 23.8008 17.9091 24.5 17.9091C25.1992 17.9091 25.8698 18.1868 26.3642 18.6812C26.8586 19.1757 27.1364 19.8462 27.1364 20.5454Z" fill="#1A263D"/>
<path fill-rule="evenodd" clip-rule="evenodd" d="M24.5 10C16.492 10 10 16.492 10 24.5C10 32.508 16.492 39 24.5 39C32.508 39 39 32.508 39 24.5C39 16.492 32.508 10 24.5 10ZM12.6364 24.5C12.6364 27.255 13.5762 29.7912 15.1515 31.8054C16.2577 30.3526 17.6849 29.1753 19.3214 28.3653C20.958 27.5554 22.7597 27.1348 24.5857 27.1364C26.3881 27.1347 28.1671 27.5444 29.7871 28.3343C31.4072 29.1242 32.8256 30.2735 33.9342 31.6946C35.0764 30.1967 35.8454 28.4482 36.1776 26.5941C36.5099 24.7399 36.3958 22.8332 35.8449 21.0318C35.294 19.2305 34.3221 17.5862 33.0095 16.235C31.6969 14.8839 30.0815 13.8647 28.2969 13.2619C26.5122 12.659 24.6097 12.4897 22.7466 12.7681C20.8836 13.0465 19.1136 13.7646 17.5832 14.8628C16.0528 15.9611 14.8058 17.408 13.9456 19.0838C13.0854 20.7597 12.6366 22.6163 12.6364 24.5ZM24.5 36.3636C21.7766 36.3677 19.1354 35.4308 17.0233 33.7115C17.8734 32.4944 19.0049 31.5008 20.3216 30.815C21.6383 30.1292 23.1011 29.7717 24.5857 29.7727C26.0517 29.7716 27.4969 30.1202 28.8011 30.7896C30.1054 31.459 31.2311 32.43 32.0848 33.6218C29.9563 35.397 27.2716 36.3675 24.5 36.3636Z" fill="#1A263D"/>
</svg>
