<svg width="41" height="41" viewBox="0 0 41 41" fill="none" xmlns="http://www.w3.org/2000/svg">
<path d="M20.4999 27.3334C22.3791 27.3334 23.9166 28.8709 23.9166 30.75C23.9166 32.6292 22.3791 34.1667 20.4999 34.1667C18.6208 34.1667 17.0833 32.6292 17.0833 30.75C17.0833 28.8709 18.6208 27.3334 20.4999 27.3334ZM20.4999 17.0834C22.3791 17.0834 23.9166 18.6209 23.9166 20.5C23.9166 22.3792 22.3791 23.9167 20.4999 23.9167C18.6208 23.9167 17.0833 22.3792 17.0833 20.5C17.0833 18.6209 18.6208 17.0834 20.4999 17.0834ZM20.4999 6.83337C22.3791 6.83337 23.9166 8.37087 23.9166 10.25C23.9166 12.1292 22.3791 13.6667 20.4999 13.6667C18.6208 13.6667 17.0833 12.1292 17.0833 10.25C17.0833 8.37087 18.6208 6.83337 20.4999 6.83337ZM10.2499 27.3334C12.1291 27.3334 13.6666 28.8709 13.6666 30.75C13.6666 32.6292 12.1291 34.1667 10.2499 34.1667C8.37075 34.1667 6.83325 32.6292 6.83325 30.75C6.83325 28.8709 8.37075 27.3334 10.2499 27.3334ZM10.2499 17.0834C12.1291 17.0834 13.6666 18.6209 13.6666 20.5C13.6666 22.3792 12.1291 23.9167 10.2499 23.9167C8.37075 23.9167 6.83325 22.3792 6.83325 20.5C6.83325 18.6209 8.37075 17.0834 10.2499 17.0834ZM10.2499 6.83337C12.1291 6.83337 13.6666 8.37087 13.6666 10.25C13.6666 12.1292 12.1291 13.6667 10.2499 13.6667C8.37075 13.6667 6.83325 12.1292 6.83325 10.25C6.83325 8.37087 8.37075 6.83337 10.2499 6.83337ZM30.7499 27.3334C32.6291 27.3334 34.1666 28.8709 34.1666 30.75C34.1666 32.6292 32.6291 34.1667 30.7499 34.1667C28.8707 34.1667 27.3333 32.6292 27.3333 30.75C27.3333 28.8709 28.8707 27.3334 30.7499 27.3334ZM30.7499 17.0834C32.6291 17.0834 34.1666 18.6209 34.1666 20.5C34.1666 22.3792 32.6291 23.9167 30.7499 23.9167C28.8707 23.9167 27.3333 22.3792 27.3333 20.5C27.3333 18.6209 28.8707 17.0834 30.7499 17.0834ZM30.7499 6.83337C32.6291 6.83337 34.1666 8.37087 34.1666 10.25C34.1666 12.1292 32.6291 13.6667 30.7499 13.6667C28.8707 13.6667 27.3333 12.1292 27.3333 10.25C27.3333 8.37087 28.8707 6.83337 30.7499 6.83337Z" fill="#1A263D"/>
</svg>
